<?xml version="1.0" encoding="UTF-8"?>
<!DOCTYPE svg PUBLIC "-//W3C//DTD SVG 1.1//EN" "http://www.w3.org/Graphics/SVG/1.1/DTD/svg11.dtd">
<svg xmlns="http://www.w3.org/2000/svg" version="1.1" width="502px" height="257px" style="shape-rendering:geometricPrecision; text-rendering:geometricPrecision; image-rendering:optimizeQuality; fill-rule:evenodd; clip-rule:evenodd" xmlns:xlink="http://www.w3.org/1999/xlink">
<g><path style="opacity:1" fill="#050505" d="M -0.5,-0.5 C 166.833,-0.5 334.167,-0.5 501.5,-0.5C 501.5,85.1667 501.5,170.833 501.5,256.5C 334.167,256.5 166.833,256.5 -0.5,256.5C -0.5,170.833 -0.5,85.1667 -0.5,-0.5 Z"/></g>
<g><path style="opacity:1" fill="#d0d1d1" d="M 480.5,4.5 C 479.209,4.26269 478.209,4.59603 477.5,5.5C 324.5,5.33333 171.5,5.5 18.5,6C 12.4933,8.83325 8.49328,13.3332 6.5,19.5C 6.67158,18.5084 6.33825,17.8417 5.5,17.5C 7.58805,10.9106 11.9214,6.41064 18.5,4C 172.667,3.16721 326.667,3.33387 480.5,4.5 Z"/></g>
<g><path style="opacity:1" fill="#010101" d="M 477.5,5.5 C 484.468,6.29546 489.301,9.96213 492,16.5C 492.667,89.1667 492.667,161.833 492,234.5C 490.167,240.333 486.333,244.167 480.5,246C 326.5,246.667 172.5,246.667 18.5,246C 12.4802,243.317 8.64687,238.817 7,232.5C 6.5,161.501 6.33334,90.5008 6.5,19.5C 8.49328,13.3332 12.4933,8.83325 18.5,6C 171.5,5.5 324.5,5.33333 477.5,5.5 Z"/></g>
<g><path style="opacity:1" fill="#dbdbdb" d="M 477.5,5.5 C 478.209,4.59603 479.209,4.26269 480.5,4.5C 487.309,5.80476 491.809,9.80476 494,16.5C 494.667,89.5 494.667,162.5 494,235.5C 491.762,242.07 487.262,246.237 480.5,248C 326.5,248.667 172.5,248.667 18.5,248C 12.3074,245.807 8.14071,241.641 6,235.5C 5.5,162.834 5.33334,90.1674 5.5,17.5C 6.33825,17.8417 6.67158,18.5084 6.5,19.5C 6.33334,90.5008 6.5,161.501 7,232.5C 8.64687,238.817 12.4802,243.317 18.5,246C 172.5,246.667 326.5,246.667 480.5,246C 486.333,244.167 490.167,240.333 492,234.5C 492.667,161.833 492.667,89.1667 492,16.5C 489.301,9.96213 484.468,6.29546 477.5,5.5 Z"/></g>
<g><path style="opacity:1" fill="#5f5f5f" d="M 327.5,193.5 C 325.735,194.461 323.735,194.795 321.5,194.5C 321.5,198.5 321.5,202.5 321.5,206.5C 320.515,202.366 320.182,198.032 320.5,193.5C 322.833,193.5 325.167,193.5 327.5,193.5 Z"/></g>
<g><path style="opacity:1" fill="#dedede" d="M 378.5,190.5 C 386.551,189.884 390.218,193.551 389.5,201.5C 385.116,201.174 380.783,201.508 376.5,202.5C 379.051,209.078 383.051,210.078 388.5,205.5C 389.149,209.061 387.482,211.228 383.5,212C 372.861,211.245 369.361,205.745 373,195.5C 374.73,193.598 376.563,191.931 378.5,190.5 Z"/></g>
<g><path style="opacity:1" fill="#0f0f0f" d="M 378.5,193.5 C 382.851,192.533 385.185,194.2 385.5,198.5C 382.5,198.5 379.5,198.5 376.5,198.5C 376.392,196.486 377.058,194.82 378.5,193.5 Z"/></g>
<g><path style="opacity:1" fill="#dcdcdc" d="M 243.5,190.5 C 255.264,190.679 259.097,196.346 255,207.5C 249.665,213.634 243.999,213.968 238,208.5C 233.405,200.425 235.238,194.425 243.5,190.5 Z"/></g>
<g><path style="opacity:1" fill="#060606" d="M 243.5,193.5 C 251.121,193.946 253.621,197.946 251,205.5C 248,210.833 245,210.833 242,205.5C 240.994,201.198 241.494,197.198 243.5,193.5 Z"/></g>
<g><path style="opacity:1" fill="#dcdcdc" d="M 219.5,190.5 C 231.264,190.679 235.097,196.346 231,207.5C 225.665,213.634 219.999,213.968 214,208.5C 209.405,200.425 211.238,194.425 219.5,190.5 Z"/></g>
<g><path style="opacity:1" fill="#060606" d="M 219.5,193.5 C 227.121,193.946 229.621,197.946 227,205.5C 224,210.833 221,210.833 218,205.5C 216.994,201.198 217.494,197.198 219.5,193.5 Z"/></g>
<g><path style="opacity:1" fill="#e3e3e3" d="M 167.5,178.5 C 168.5,178.5 169.5,178.5 170.5,178.5C 170.5,188.5 170.5,198.5 170.5,208.5C 171.675,208.281 172.675,208.614 173.5,209.5C 171.513,211.327 169.179,212.327 166.5,212.5C 166.649,211.448 166.483,210.448 166,209.5C 160.808,213.546 156.142,212.88 152,207.5C 148.806,195.533 153.306,190.2 165.5,191.5C 166.484,188.572 166.817,185.572 166.5,182.5C 165.022,182.762 163.689,182.429 162.5,181.5C 163.947,180.065 165.614,179.065 167.5,178.5 Z"/></g>
<g><path style="opacity:1" fill="#101010" d="M 158.5,193.5 C 161.365,193.055 163.865,193.722 166,195.5C 166.667,199.167 166.667,202.833 166,206.5C 161.471,209.7 158.138,208.7 156,203.5C 155.024,199.673 155.857,196.34 158.5,193.5 Z"/></g>
<g><path style="opacity:1" fill="#dedede" d="M 136.5,190.5 C 144.551,189.884 148.218,193.551 147.5,201.5C 143.116,201.174 138.783,201.508 134.5,202.5C 137.051,209.078 141.051,210.078 146.5,205.5C 147.149,209.061 145.482,211.228 141.5,212C 130.861,211.245 127.361,205.745 131,195.5C 132.73,193.598 134.563,191.931 136.5,190.5 Z"/></g>
<g><path style="opacity:1" fill="#0f0f0f" d="M 136.5,193.5 C 140.851,192.533 143.185,194.2 143.5,198.5C 140.5,198.5 137.5,198.5 134.5,198.5C 134.392,196.486 135.058,194.82 136.5,193.5 Z"/></g>
<g><path style="opacity:1" fill="#dddddd" d="M 115.5,190.5 C 123.551,189.884 127.218,193.551 126.5,201.5C 122.116,201.174 117.783,201.508 113.5,202.5C 115.602,208.625 119.435,209.959 125,206.5C 125.5,206.833 126,207.167 126.5,207.5C 121.05,214.084 115.55,214.084 110,207.5C 106.787,200.083 108.62,194.416 115.5,190.5 Z"/></g>
<g><path style="opacity:1" fill="#101010" d="M 115.5,193.5 C 119.851,192.533 122.185,194.2 122.5,198.5C 119.5,198.5 116.5,198.5 113.5,198.5C 113.392,196.486 114.058,194.82 115.5,193.5 Z"/></g>
<g><path style="opacity:1" fill="#dfdfdf" d="M 337.5,190.5 C 350.114,190.941 353.947,196.941 349,208.5C 341.872,214.341 335.872,213.341 331,205.5C 330.333,202.5 330.333,199.5 331,196.5C 333.063,194.266 335.229,192.266 337.5,190.5 Z"/></g>
<g><path style="opacity:1" fill="#0e0e0e" d="M 338.5,193.5 C 345.382,193.887 347.882,197.553 346,204.5C 343.47,210.788 340.137,211.121 336,205.5C 334.773,200.938 335.607,196.938 338.5,193.5 Z"/></g>
<g><path style="opacity:1" fill="#dfdfdf" d="M 358.5,190.5 C 359.5,190.5 360.5,190.5 361.5,190.5C 361.351,191.552 361.517,192.552 362,193.5C 364.55,189.875 367.05,189.708 369.5,193C 369.355,193.772 369.022,194.439 368.5,195C 365.953,195.067 363.786,195.901 362,197.5C 361.501,201.486 361.334,205.486 361.5,209.5C 362.978,209.238 364.311,209.571 365.5,210.5C 361.5,211.833 357.5,211.833 353.5,210.5C 354.325,209.614 355.325,209.281 356.5,209.5C 356.5,204.5 356.5,199.5 356.5,194.5C 355.325,194.719 354.325,194.386 353.5,193.5C 355.145,192.304 356.811,191.304 358.5,190.5 Z"/></g>
<g><path style="opacity:1" fill="#646464" d="M 319.5,187.5 C 319.56,186.957 319.893,186.624 320.5,186.5C 321.429,187.689 321.762,189.022 321.5,190.5C 323.735,190.205 325.735,190.539 327.5,191.5C 325.167,191.5 322.833,191.5 320.5,191.5C 320.768,189.901 320.434,188.568 319.5,187.5 Z"/></g>
<g><path style="opacity:1" fill="#616161" d="M 280.5,191.5 C 276.988,190.945 273.988,191.612 271.5,193.5C 270.596,192.791 270.263,191.791 270.5,190.5C 274.042,190.187 277.375,190.521 280.5,191.5 Z"/></g>
<g><path style="opacity:1" fill="#e6e6e6" d="M 319.5,187.5 C 320.434,188.568 320.768,189.901 320.5,191.5C 322.833,191.5 325.167,191.5 327.5,191.5C 328.833,192.167 328.833,192.833 327.5,193.5C 325.167,193.5 322.833,193.5 320.5,193.5C 320.182,198.032 320.515,202.366 321.5,206.5C 321.611,207.117 321.944,207.617 322.5,208C 324.936,207.947 327.269,208.113 329.5,208.5C 325.425,213.786 321.258,213.786 317,208.5C 316.501,203.511 316.334,198.511 316.5,193.5C 315.325,193.719 314.325,193.386 313.5,192.5C 315.519,190.81 317.519,189.144 319.5,187.5 Z"/></g>
<g><path style="opacity:1" fill="#dedede" d="M 185.5,183.5 C 190.844,183.334 196.177,183.501 201.5,184C 208.5,187.166 209.167,191.332 203.5,196.5C 210.607,202.363 209.94,207.196 201.5,211C 196.136,211.829 190.802,211.663 185.5,210.5C 186.242,209.713 187.075,209.047 188,208.5C 188.5,201.174 188.666,193.841 188.5,186.5C 187.5,186.5 186.5,186.5 185.5,186.5C 185.5,185.5 185.5,184.5 185.5,183.5 Z"/></g>
<g><path style="opacity:1" fill="#070707" d="M 193.5,198.5 C 196.271,198.421 198.937,198.921 201.5,200C 204.167,202.667 204.167,205.333 201.5,208C 198.854,208.497 196.187,208.664 193.5,208.5C 193.5,205.167 193.5,201.833 193.5,198.5 Z"/></g>
<g><path style="opacity:1" fill="#020202" d="M 193.5,186.5 C 200.203,185.53 202.536,188.197 200.5,194.5C 198.253,195.374 195.92,195.708 193.5,195.5C 193.5,192.5 193.5,189.5 193.5,186.5 Z"/></g>
<g><path style="opacity:1" fill="#e0e0e0" d="M 297.5,183.5 C 301.571,183.234 305.571,183.567 309.5,184.5C 310.466,186.396 310.799,188.396 310.5,190.5C 309.167,190.5 307.833,190.5 306.5,190.5C 305.758,185.463 303.091,184.296 298.5,187C 297.41,189.279 297.744,191.446 299.5,193.5C 303.626,195.373 307.459,197.706 311,200.5C 312.051,208.291 308.551,212.291 300.5,212.5C 298.423,212.308 296.423,211.808 294.5,211C 292.709,208.894 292.042,206.394 292.5,203.5C 293.675,203.281 294.675,203.614 295.5,204.5C 297.644,209.834 301.144,210.834 306,207.5C 306.667,206.167 306.667,204.833 306,203.5C 301.43,200.862 297.096,197.862 293,194.5C 291.776,189.626 293.276,185.959 297.5,183.5 Z"/></g>
<g><path style="opacity:1" fill="#e0e0e0" d="M 91.5,183.5 C 95.5705,183.234 99.5705,183.567 103.5,184.5C 104.466,186.396 104.799,188.396 104.5,190.5C 103.167,190.5 101.833,190.5 100.5,190.5C 99.7581,185.463 97.0915,184.296 92.5,187C 91.4103,189.279 91.7437,191.446 93.5,193.5C 97.6258,195.373 101.459,197.706 105,200.5C 106.051,208.291 102.551,212.291 94.5,212.5C 92.4233,212.308 90.4233,211.808 88.5,211C 86.709,208.894 86.0423,206.394 86.5,203.5C 87.675,203.281 88.675,203.614 89.5,204.5C 91.6443,209.834 95.1443,210.834 100,207.5C 100.667,206.167 100.667,204.833 100,203.5C 95.4297,200.862 91.0963,197.862 87,194.5C 85.7758,189.626 87.2758,185.959 91.5,183.5 Z"/></g>
<g><path style="opacity:1" fill="#606060" d="M 266.5,179.5 C 267.167,185.833 267.833,192.167 268.5,198.5C 268.217,199.289 267.717,199.956 267,200.5C 266.5,193.508 266.334,186.508 266.5,179.5 Z"/></g>
<g><path style="opacity:1" fill="#ebebeb" d="M 266.5,179.5 C 266.334,186.508 266.5,193.508 267,200.5C 267.717,199.956 268.217,199.289 268.5,198.5C 270.296,197.207 271.963,195.707 273.5,194C 272.906,193.536 272.239,193.369 271.5,193.5C 273.988,191.612 276.988,190.945 280.5,191.5C 277.409,194.409 274.076,197.242 270.5,200C 274.015,203.682 277.682,207.182 281.5,210.5C 279.167,211.833 276.833,211.833 274.5,210.5C 272.183,207.683 269.683,205.016 267,202.5C 266.503,204.81 266.337,207.143 266.5,209.5C 267.675,209.281 268.675,209.614 269.5,210.5C 266.167,211.833 262.833,211.833 259.5,210.5C 260.325,209.614 261.325,209.281 262.5,209.5C 262.5,200.5 262.5,191.5 262.5,182.5C 261.022,182.762 259.689,182.429 258.5,181.5C 261.021,179.308 263.688,178.641 266.5,179.5 Z"/></g>
<g><path style="opacity:1" fill="#939494" d="M 227.5,140.5 C 228.043,140.56 228.376,140.893 228.5,141.5C 222.68,142.816 217.013,142.816 211.5,141.5C 217.026,141.821 222.36,141.488 227.5,140.5 Z"/></g>
<g><path style="opacity:1" fill="#646464" d="M 304.5,105.5 C 309.305,104.513 314.305,104.179 319.5,104.5C 319.737,105.791 319.404,106.791 318.5,107.5C 314.285,105.564 309.619,104.897 304.5,105.5 Z"/></g>
<g><path style="opacity:1" fill="#818181" d="M 318.5,22.5 C 319.498,48.6614 319.831,74.9947 319.5,101.5C 317.833,101.5 316.167,101.5 314.5,101.5C 314.5,76.8333 314.5,52.1667 314.5,27.5C 309.833,27.5 305.167,27.5 300.5,27.5C 305.305,26.5128 310.305,26.1795 315.5,26.5C 315.5,51.1667 315.5,75.8333 315.5,100.5C 316.5,100.5 317.5,100.5 318.5,100.5C 318.5,74.5 318.5,48.5 318.5,22.5 Z"/></g>
<g><path style="opacity:1" fill="#b4b4b4" d="M 173.5,27.5 C 169.167,27.5 164.833,27.5 160.5,27.5C 160.5,52.1667 160.5,76.8333 160.5,101.5C 158.901,101.768 157.568,101.434 156.5,100.5C 157.5,100.5 158.5,100.5 159.5,100.5C 159.5,75.8333 159.5,51.1667 159.5,26.5C 164.363,26.1805 169.03,26.5139 173.5,27.5 Z"/></g>
<g><path style="opacity:1" fill="#eeeeee" d="M 318.5,22.5 C 318.5,48.5 318.5,74.5 318.5,100.5C 317.5,100.5 316.5,100.5 315.5,100.5C 315.5,75.8333 315.5,51.1667 315.5,26.5C 310.305,26.1795 305.305,26.5128 300.5,27.5C 282.235,27.8431 265.568,33.0097 250.5,43C 246.193,46.4647 242.859,50.6313 240.5,55.5C 239.347,61.6529 239.18,67.9863 240,74.5C 240.717,73.9558 241.217,73.2891 241.5,72.5C 256.147,58.3561 273.813,51.0228 294.5,50.5C 294.5,51.8333 294.5,53.1667 294.5,54.5C 276.688,55.4899 260.854,61.4899 247,72.5C 243.802,75.5627 241.636,79.2294 240.5,83.5C 239.347,89.3188 239.181,95.3188 240,101.5C 240.717,100.956 241.217,100.289 241.5,99.5C 256.227,84.6458 274.06,77.3124 295,77.5C 295.49,78.7932 295.657,80.1266 295.5,81.5C 275.5,81.756 258.334,88.756 244,102.5C 242.807,104.886 241.64,107.22 240.5,109.5C 239.345,116.321 239.179,123.321 240,130.5C 240.717,129.956 241.217,129.289 241.5,128.5C 253.991,116.482 268.991,109.315 286.5,107C 292.465,106.037 298.465,105.537 304.5,105.5C 309.619,104.897 314.285,105.564 318.5,107.5C 314.202,119.634 306.202,128.467 294.5,134C 279.07,140.204 263.07,142.87 246.5,142C 252.81,132.367 261.477,125.7 272.5,122C 279.952,119.797 287.452,117.963 295,116.5C 295.798,118.259 295.631,119.926 294.5,121.5C 280.508,122.329 268.008,126.995 257,135.5C 256.833,135.833 256.667,136.167 256.5,136.5C 274.371,137.82 290.371,132.987 304.5,122C 308.103,118.62 311.103,114.787 313.5,110.5C 291.627,108.219 271.293,112.719 252.5,124C 245.817,128.5 241.817,134.666 240.5,142.5C 238.833,142.5 237.167,142.5 235.5,142.5C 234.012,135.37 230.345,129.536 224.5,125C 205.05,113.642 184.05,108.642 161.5,110C 168.677,122.087 179.01,130.087 192.5,134C 201.346,136.571 210.346,137.571 219.5,137C 208.564,127.904 195.897,122.904 181.5,122C 180.62,120.644 180.286,119.144 180.5,117.5C 194.216,118.527 206.883,122.694 218.5,130C 222.085,133.078 225.085,136.578 227.5,140.5C 222.36,141.488 217.026,141.821 211.5,141.5C 193.572,140.918 178.072,134.584 165,122.5C 161.388,117.611 158.555,112.277 156.5,106.5C 179.283,104.114 200.95,107.947 221.5,118C 226.954,121.12 231.454,125.287 235,130.5C 235.934,122.395 235.601,114.395 234,106.5C 225.056,94.6023 213.223,87.1023 198.5,84C 192.539,82.8383 186.539,82.005 180.5,81.5C 180.5,79.8333 180.5,78.1667 180.5,76.5C 197.096,77.9672 212.43,83.1339 226.5,92C 229.333,94.8333 232.167,97.6667 235,100.5C 238.551,87.5486 235.051,77.0486 224.5,69C 211.601,61.1447 197.601,56.478 182.5,55C 180.893,53.951 180.227,52.451 180.5,50.5C 198.211,51.1966 214.211,56.6966 228.5,67C 231.04,69.2047 233.207,71.7047 235,74.5C 235.667,68.1667 235.667,61.8333 235,55.5C 230.187,47.6551 223.687,41.4885 215.5,37C 202.078,31.3729 188.078,28.2063 173.5,27.5C 169.03,26.5139 164.363,26.1805 159.5,26.5C 159.5,51.1667 159.5,75.8333 159.5,100.5C 158.5,100.5 157.5,100.5 156.5,100.5C 156.5,74.5 156.5,48.5 156.5,22.5C 176.458,21.9942 195.791,25.1608 214.5,32C 224.246,36.2769 232.079,42.7769 238,51.5C 243.727,41.7746 251.894,34.9412 262.5,31C 280.625,24.7338 299.292,21.9005 318.5,22.5 Z"/></g>
<g><path style="opacity:1" fill="#434343" d="M 240.5,109.5 C 240.177,116.022 240.51,122.355 241.5,128.5C 241.217,129.289 240.717,129.956 240,130.5C 239.179,123.321 239.345,116.321 240.5,109.5 Z"/></g>
<g><path style="opacity:1" fill="#464646" d="M 240.5,83.5 C 240.179,89.0262 240.512,94.3595 241.5,99.5C 241.217,100.289 240.717,100.956 240,101.5C 239.181,95.3188 239.347,89.3188 240.5,83.5 Z"/></g>
<g><path style="opacity:1" fill="#464647" d="M 240.5,55.5 C 240.178,61.358 240.511,67.0247 241.5,72.5C 241.217,73.2891 240.717,73.9558 240,74.5C 239.18,67.9863 239.347,61.6529 240.5,55.5 Z"/></g>
</svg>
