<?xml version="1.0" encoding="UTF-8"?>
<!DOCTYPE svg PUBLIC "-//W3C//DTD SVG 1.1//EN" "http://www.w3.org/Graphics/SVG/1.1/DTD/svg11.dtd">
<svg xmlns="http://www.w3.org/2000/svg" version="1.1" width="402px" height="142px" style="shape-rendering:geometricPrecision; text-rendering:geometricPrecision; image-rendering:optimizeQuality; fill-rule:evenodd; clip-rule:evenodd" xmlns:xlink="http://www.w3.org/1999/xlink">
<g><path style="opacity:1" fill="#f3f3f3" d="M -0.5,-0.5 C 133.5,-0.5 267.5,-0.5 401.5,-0.5C 401.5,46.8333 401.5,94.1667 401.5,141.5C 392.5,141.5 383.5,141.5 374.5,141.5C 374.5,141.167 374.5,140.833 374.5,140.5C 385.751,137.75 392.918,130.75 396,119.5C 396.5,88.5018 396.667,57.5018 396.5,26.5C 394.008,14.6764 387.008,7.0097 375.5,3.5C 374.048,2.69808 372.382,2.19808 370.5,2C 312.833,1.83333 255.167,1.66667 197.5,1.5C 138.776,1.33899 80.1098,1.83899 21.5,3C 12.2413,6.59147 6.07459,13.0915 3,22.5C 2.33333,54.8333 2.33333,87.1667 3,119.5C 6.06516,130.732 13.2318,137.732 24.5,140.5C 24.5,140.833 24.5,141.167 24.5,141.5C 16.1667,141.5 7.83333,141.5 -0.5,141.5C -0.5,94.1667 -0.5,46.8333 -0.5,-0.5 Z"/></g>
<g><path style="opacity:1" fill="#2c2c2b" d="M 375.5,3.5 C 374.833,3.5 374.5,3.83333 374.5,4.5C 257.903,3.33554 141.236,3.16887 24.5,4C 12.5532,7.94242 5.71985,16.1091 4,28.5C 3.33333,57.5 3.33333,86.5 4,115.5C 6.98998,129.991 15.8233,137.991 30.5,139.5C 28.7354,140.461 26.7354,140.795 24.5,140.5C 13.2318,137.732 6.06516,130.732 3,119.5C 2.33333,87.1667 2.33333,54.8333 3,22.5C 6.07459,13.0915 12.2413,6.59147 21.5,3C 80.1098,1.83899 138.776,1.33899 197.5,1.5C 255.167,1.66667 312.833,1.83333 370.5,2C 372.382,2.19808 374.048,2.69808 375.5,3.5 Z"/></g>
<g><path style="opacity:1" fill="#fdfdfd" d="M 374.5,4.5 C 386.489,8.15474 393.489,16.1547 395.5,28.5C 395.96,58.5419 395.46,88.5419 394,118.5C 390.469,131.531 381.969,138.531 368.5,139.5C 255.833,139.5 143.167,139.5 30.5,139.5C 15.8233,137.991 6.98998,129.991 4,115.5C 3.33333,86.5 3.33333,57.5 4,28.5C 5.71985,16.1091 12.5532,7.94242 24.5,4C 141.236,3.16887 257.903,3.33554 374.5,4.5 Z"/></g>
<g><path style="opacity:1" fill="#4b4b49" d="M 153.5,17.5 C 152.5,17.5 151.5,17.5 150.5,17.5C 149.849,33.5357 150.516,49.2023 152.5,64.5C 151.791,65.404 150.791,65.7373 149.5,65.5C 149.5,49.1667 149.5,32.8333 149.5,16.5C 151.099,16.2322 152.432,16.5655 153.5,17.5 Z"/></g>
<g><path style="opacity:1" fill="#20201f" d="M 181.5,87.5 C 183.966,88.6341 186.633,88.8007 189.5,88C 188.956,87.2828 188.289,86.7828 187.5,86.5C 180.802,81.33 173.135,78.6633 164.5,78.5C 164.281,77.325 164.614,76.325 165.5,75.5C 172.91,76.3485 179.91,78.5151 186.5,82C 189.833,84 192.5,86.6667 194.5,90C 178.59,92.4862 165.09,87.9862 154,76.5C 152.354,74.3907 151.188,72.0573 150.5,69.5C 152.607,68.5318 154.941,68.1984 157.5,68.5C 169.666,68.2453 181,71.0786 191.5,77C 193.996,78.331 195.996,80.1644 197.5,82.5C 197.783,83.2891 198.283,83.9558 199,84.5C 199.814,79.9796 199.647,75.6463 198.5,71.5C 197.163,66.994 194.496,63.494 190.5,61C 182.37,56.5671 173.704,54.0671 164.5,53.5C 164.281,52.325 164.614,51.325 165.5,50.5C 174.187,51.6721 182.52,54.1721 190.5,58C 193.295,59.7932 195.795,61.9598 198,64.5C 198.667,60.5 198.667,56.5 198,52.5C 192.057,44.7703 184.224,39.937 174.5,38C 171.146,37.5448 167.813,37.0448 164.5,36.5C 164.351,35.448 164.517,34.448 165,33.5C 174.297,34.8281 183.131,37.6615 191.5,42C 193.805,43.6264 195.805,45.4598 197.5,47.5C 197.783,48.2891 198.283,48.9558 199,49.5C 199.81,45.6425 199.643,41.9758 198.5,38.5C 195.679,32.181 191.013,27.681 184.5,25C 174.115,21.5469 163.448,19.7135 152.5,19.5C 152.5,34.5 152.5,49.5 152.5,64.5C 150.516,49.2023 149.849,33.5357 150.5,17.5C 151.5,17.5 152.5,17.5 153.5,17.5C 167.838,16.7187 181.172,19.8854 193.5,27C 196.04,29.2047 198.207,31.7047 200,34.5C 207.667,25.1747 217.5,19.6747 229.5,18C 236.524,17.6752 243.524,17.1752 250.5,16.5C 250.833,32.8469 250.499,49.1803 249.5,65.5C 248.501,50.1811 248.167,34.8478 248.5,19.5C 234.158,18.6748 220.825,21.8414 208.5,29C 201.865,33.9157 199.698,40.4157 202,48.5C 211.032,38.5469 222.198,34.2136 235.5,35.5C 226.807,37.2721 218.474,40.1054 210.5,44C 207.267,46.8945 204.434,50.0611 202,53.5C 201.333,57.5 201.333,61.5 202,65.5C 210.901,55.7968 222.067,50.7968 235.5,50.5C 235.5,51.5 235.5,52.5 235.5,53.5C 221.608,53.3645 210.441,58.6978 202,69.5C 201.333,74.1667 201.333,78.8333 202,83.5C 209.31,75.2758 218.477,70.4425 229.5,69C 235.863,68.7534 242.196,68.2534 248.5,67.5C 249.167,67.8333 249.833,68.1667 250.5,68.5C 248.143,74.3533 244.476,79.1867 239.5,83C 229.327,89.461 218.327,91.6276 206.5,89.5C 214.046,80.6407 223.712,75.974 235.5,75.5C 235.5,76.5 235.5,77.5 235.5,78.5C 225.906,78.4193 217.572,81.586 210.5,88C 223.025,88.4365 234.025,84.6032 243.5,76.5C 245.027,74.8067 246.36,72.9734 247.5,71C 233.516,69.8869 220.516,72.8869 208.5,80C 204.981,82.881 202.314,86.381 200.5,90.5C 193.65,79.5591 183.65,73.3924 170.5,72C 164.812,70.9011 159.145,70.7344 153.5,71.5C 155.976,75.8097 159.31,79.3097 163.5,82C 169.071,85.2879 175.071,87.1212 181.5,87.5 Z"/></g>
<g><path style="opacity:1" fill="#2b2b2a" d="M 374.5,4.5 C 374.5,3.83333 374.833,3.5 375.5,3.5C 387.008,7.0097 394.008,14.6764 396.5,26.5C 395.662,26.8417 395.328,27.5084 395.5,28.5C 393.489,16.1547 386.489,8.15474 374.5,4.5 Z"/></g>
<g><path style="opacity:1" fill="#888887" d="M 198.5,38.5 C 199.643,41.9758 199.81,45.6425 199,49.5C 198.283,48.9558 197.783,48.2891 197.5,47.5C 198.477,44.7131 198.81,41.7131 198.5,38.5 Z"/></g>
<g><path style="opacity:1" fill="#7b7b79" d="M 157.5,68.5 C 154.941,68.1984 152.607,68.5318 150.5,69.5C 149.957,69.44 149.624,69.1067 149.5,68.5C 152.309,67.1997 154.976,67.1997 157.5,68.5 Z"/></g>
<g><path style="opacity:1" fill="#848583" d="M 198.5,71.5 C 199.647,75.6463 199.814,79.9796 199,84.5C 198.283,83.9558 197.783,83.2891 197.5,82.5C 198.482,79.0381 198.815,75.3714 198.5,71.5 Z"/></g>
<g><path style="opacity:1" fill="#a0a09f" d="M 187.5,86.5 C 188.289,86.7828 188.956,87.2828 189.5,88C 186.633,88.8007 183.966,88.6341 181.5,87.5C 183.735,87.7947 185.735,87.4614 187.5,86.5 Z"/></g>
<g><path style="opacity:1" fill="#525250" d="M 155.5,114.5 C 156.209,113.596 157.209,113.263 158.5,113.5C 158.5,119.5 158.5,125.5 158.5,131.5C 158.146,125.594 157.146,119.927 155.5,114.5 Z"/></g>
<g><path style="opacity:1" fill="#2a2a29" d="M 220.5,125.5 C 221.882,128.394 223.882,130.894 226.5,133C 222.997,132.707 220.331,130.874 218.5,127.5C 217.107,129.674 217.44,131.507 219.5,133C 217.833,133.667 216.167,133.667 214.5,133C 215.145,130.086 215.478,127.086 215.5,124C 215.442,120.724 214.776,117.724 213.5,115C 214.5,114.5 215.5,114 216.5,113.5C 217.167,117.833 217.833,122.167 218.5,126.5C 219.183,126.137 219.85,125.804 220.5,125.5 Z"/></g>
<g><path style="opacity:1" fill="#2a2a29" d="M 168.5,117.5 C 169.964,116.84 171.631,116.507 173.5,116.5C 180.013,116.146 181.68,118.646 178.5,124C 181.932,126.367 182.265,129.034 179.5,132C 178.833,132.667 178.167,132.667 177.5,132C 179.515,130.445 179.848,128.611 178.5,126.5C 176.591,125.652 174.591,125.318 172.5,125.5C 172.5,127.833 172.5,130.167 172.5,132.5C 176.166,133.465 174.832,133.632 168.5,133C 169.766,130.617 170.432,127.95 170.5,125C 170.475,122.071 169.809,119.571 168.5,117.5 Z"/></g>
<g><path style="opacity:1" fill="#ececec" d="M 172.5,117.5 C 178.155,117.325 179.488,119.491 176.5,124C 175.207,124.49 173.873,124.657 172.5,124.5C 172.5,122.167 172.5,119.833 172.5,117.5 Z"/></g>
<g><path style="opacity:1" fill="#333332" d="M 237.5,116.5 C 239.833,116.5 242.167,116.5 244.5,116.5C 244.79,120.554 244.123,121.054 242.5,118C 238.333,116.833 236.833,118.333 238,122.5C 240.087,123.794 242.254,124.961 244.5,126C 246.64,131.211 244.806,133.711 239,133.5C 235.061,133.896 233.728,132.229 235,128.5C 236.029,131.875 238.196,133.042 241.5,132C 242.833,130.333 242.833,128.667 241.5,127C 236.916,125.778 234.75,122.944 235,118.5C 235.995,117.934 236.828,117.267 237.5,116.5 Z"/></g>
<g><path style="opacity:1" fill="#292928" d="M 272.5,122.5 C 275.208,121.916 277.875,121.916 280.5,122.5C 277.186,123.151 275.853,125.151 276.5,128.5C 276.649,130.32 277.316,131.82 278.5,133C 276.5,133.667 274.5,133.667 272.5,133C 273.704,131.647 274.371,129.981 274.5,128C 274.333,126.5 274.167,125 274,123.5C 273.617,122.944 273.117,122.611 272.5,122.5 Z"/></g>
<g><path style="opacity:1" fill="#3f3f3e" d="M 203.5,120.5 C 209.873,120.368 212.373,123.368 211,129.5C 207.829,134.414 204.163,134.747 200,130.5C 198.581,126.082 199.748,122.749 203.5,120.5 Z"/></g>
<g><path style="opacity:1" fill="#f0f0f0" d="M 202.5,122.5 C 204.467,122.261 206.301,122.594 208,123.5C 208.777,126.429 208.61,129.263 207.5,132C 203.466,132.976 201.466,131.309 201.5,127C 201.773,125.467 202.106,123.967 202.5,122.5 Z"/></g>
<g><path style="opacity:1" fill="#353534" d="M 250.5,118.5 C 251.404,119.209 251.737,120.209 251.5,121.5C 256.833,121.833 256.833,122.167 251.5,122.5C 251.5,125.5 251.5,128.5 251.5,131.5C 253.199,131.34 254.866,131.506 256.5,132C 254.191,134.051 252.024,133.884 250,131.5C 250.021,127.991 249.188,124.825 247.5,122C 248.71,120.961 249.71,119.794 250.5,118.5 Z"/></g>
<g><path style="opacity:1" fill="#5a5a59" d="M 123.5,129.5 C 122.833,127.833 122.167,126.167 121.5,124.5C 123.588,120.269 126.421,119.602 130,122.5C 130.49,123.793 130.657,125.127 130.5,126.5C 128.167,126.5 125.833,126.5 123.5,126.5C 123.5,127.5 123.5,128.5 123.5,129.5 Z"/></g>
<g><path style="opacity:1" fill="#f4f4f4" d="M 124.5,122.5 C 126.665,122.116 128.332,122.783 129.5,124.5C 127.5,125.833 125.5,125.833 123.5,124.5C 123.863,123.817 124.196,123.15 124.5,122.5 Z"/></g>
<g><path style="opacity:1" fill="#1d1d1c" d="M 396.5,26.5 C 396.667,57.5018 396.5,88.5018 396,119.5C 392.918,130.75 385.751,137.75 374.5,140.5C 372.265,140.795 370.265,140.461 368.5,139.5C 381.969,138.531 390.469,131.531 394,118.5C 395.46,88.5419 395.96,58.5419 395.5,28.5C 395.328,27.5084 395.662,26.8417 396.5,26.5 Z"/></g>
<g><path style="opacity:1" fill="#2b2b29" d="M 109.5,116.5 C 112.167,116.5 114.833,116.5 117.5,116.5C 117.762,117.978 117.429,119.311 116.5,120.5C 115.614,119.675 115.281,118.675 115.5,117.5C 113.801,117.34 112.134,117.506 110.5,118C 109.941,118.725 109.608,119.558 109.5,120.5C 111.647,122.839 114.147,124.839 117,126.5C 117.896,129.025 117.396,131.192 115.5,133C 112.854,133.497 110.187,133.664 107.5,133.5C 107.21,129.446 107.877,128.946 109.5,132C 111.167,132.667 112.833,132.667 114.5,132C 115.059,131.275 115.392,130.442 115.5,129.5C 113.353,127.161 110.853,125.161 108,123.5C 107.167,120.829 107.667,118.496 109.5,116.5 Z"/></g>
<g><path style="opacity:1" fill="#323230" d="M 121.5,124.5 C 122.167,126.167 122.833,127.833 123.5,129.5C 124.134,130.947 125.301,131.613 127,131.5C 128.55,131.05 130.05,130.883 131.5,131C 127.356,134.67 123.856,134.17 121,129.5C 120.22,127.613 120.387,125.946 121.5,124.5 Z"/></g>
<g><path style="opacity:1" fill="#797978" d="M 220.5,125.5 C 220.953,124.542 221.619,123.708 222.5,123C 221.692,122.692 221.025,122.192 220.5,121.5C 222.5,120.167 224.5,120.167 226.5,121.5C 224.481,122.981 222.481,124.314 220.5,125.5 Z"/></g>
<g><path style="opacity:1" fill="#30312f" d="M 155.5,114.5 C 157.146,119.927 158.146,125.594 158.5,131.5C 159.478,132.297 159.145,132.964 157.5,133.5C 154.933,133.222 152.267,133.056 149.5,133C 144.728,127.197 145.895,123.03 153,120.5C 153.873,120.735 154.707,121.069 155.5,121.5C 156.349,118.751 156.349,116.418 155.5,114.5 Z"/></g>
<g><path style="opacity:1" fill="#f0f0f0" d="M 150.5,122.5 C 152.5,122.5 154.5,122.5 156.5,122.5C 156.664,125.187 156.497,127.854 156,130.5C 154,131.833 152,131.833 150,130.5C 149.278,127.739 149.445,125.073 150.5,122.5 Z"/></g>
<g><path style="opacity:1" fill="#393937" d="M 287.5,120.5 C 291.806,120.303 293.806,122.303 293.5,126.5C 290.833,126.5 288.167,126.5 285.5,126.5C 285.297,128.39 285.963,129.89 287.5,131C 289.761,131.239 291.761,131.406 293.5,131.5C 290.005,134.368 286.838,134.035 284,130.5C 282.581,126.082 283.748,122.749 287.5,120.5 Z"/></g>
<g><path style="opacity:1" fill="#f0f0f0" d="M 286.5,122.5 C 288.167,122.5 289.833,122.5 291.5,122.5C 291.5,123.5 291.5,124.5 291.5,125.5C 289.396,125.799 287.396,125.466 285.5,124.5C 285.863,123.817 286.196,123.15 286.5,122.5 Z"/></g>
<g><path style="opacity:1" fill="#3f3f3e" d="M 137.5,120.5 C 141.693,120.362 144.027,122.362 144.5,126.5C 141.833,126.5 139.167,126.5 136.5,126.5C 136.286,128.144 136.62,129.644 137.5,131C 139.898,131.374 142.231,131.374 144.5,131C 137.028,135.547 133.528,133.38 134,124.5C 135.376,123.295 136.542,121.962 137.5,120.5 Z"/></g>
<g><path style="opacity:1" fill="#f6f6f6" d="M 137.5,122.5 C 139.665,122.116 141.332,122.783 142.5,124.5C 140.5,125.833 138.5,125.833 136.5,124.5C 136.863,123.817 137.196,123.15 137.5,122.5 Z"/></g>
<g><path style="opacity:1" fill="#353533" d="M 262.5,120.5 C 268.849,121.027 271.016,124.361 269,130.5C 265.619,134.485 262.286,134.485 259,130.5C 257.581,126.082 258.748,122.749 262.5,120.5 Z"/></g>
<g><path style="opacity:1" fill="#f4f4f4" d="M 261.5,122.5 C 267.204,122.146 269.037,124.813 267,130.5C 265,133.167 263,133.167 261,130.5C 260.278,127.739 260.445,125.073 261.5,122.5 Z"/></g>
<g><path style="opacity:1" fill="#3b3b39" d="M 188.5,120.5 C 195.369,120.538 197.869,123.871 196,130.5C 188.417,135.839 184.751,133.839 185,124.5C 186.376,123.295 187.542,121.962 188.5,120.5 Z"/></g>
<g><path style="opacity:1" fill="#f4f4f4" d="M 188.5,122.5 C 193.984,122.438 195.817,125.105 194,130.5C 192,133.167 190,133.167 188,130.5C 187.278,127.739 187.445,125.073 188.5,122.5 Z"/></g>
<g><path style="opacity:1" fill="#3a3a39" d="M 30.5,139.5 C 143.167,139.5 255.833,139.5 368.5,139.5C 370.265,140.461 372.265,140.795 374.5,140.5C 374.5,140.833 374.5,141.167 374.5,141.5C 257.833,141.5 141.167,141.5 24.5,141.5C 24.5,141.167 24.5,140.833 24.5,140.5C 26.7354,140.795 28.7354,140.461 30.5,139.5 Z"/></g>
</svg>
